<svg width="138" height="138" fill="none" xmlns="http://www.w3.org/2000/svg"><path fill="#898D90" d="M0 0h2v2H0z"/><path fill="#3D4D5E" d="M70 0h1v1h-1z"/><path fill="#1A2931" d="M18 0h1v1h-1zM35 0h1v1h-1zM52 0h1v1h-1zM87 0h1v1h-1zM104 0h1v1h-1zM121 0h1v1h-1zM18 17h1v1h-1zM1 17h1v1H1zM35 17h1v1h-1zM52 17h1v1h-1zM70 17h1v1h-1zM87 17h1v1h-1zM104 17h1v1h-1zM121 17h1v1h-1zM18 34h1v1h-1zM1 34h1v1H1zM35 34h1v1h-1zM52 34h1v1h-1zM70 34h1v1h-1zM87 34h1v1h-1zM104 34h1v1h-1zM121 34h1v1h-1zM18 52h1v1h-1zM1 52h1v1H1zM35 52h1v1h-1zM52 52h1v1h-1zM70 52h1v1h-1zM87 52h1v1h-1zM104 52h1v1h-1zM121 52h1v1h-1zM18 69h1v1h-1zM1 69h1v1H1zM35 69h1v1h-1zM52 69h1v1h-1z"/><path fill="#3D4D5E" d="M70 69h1v1h-1z"/><path fill="#1A2931" d="M87 69h1v1h-1zM104 69h1v1h-1zM121 69h1v1h-1zM18 87h1v1h-1zM1 87h1v1H1zM35 87h1v1h-1zM52 87h1v1h-1zM70 87h1v1h-1zM87 87h1v1h-1zM104 87h1v1h-1zM121 87h1v1h-1zM18 104h1v1h-1zM1 104h1v1H1zM35 104h1v1h-1zM52 104h1v1h-1zM70 104h1v1h-1zM87 104h1v1h-1zM104 104h1v1h-1zM121 104h1v1h-1zM18 121h1v1h-1zM1 121h1v1H1zM35 121h1v1h-1zM52 121h1v1h-1zM70 121h1v1h-1zM87 121h1v1h-1zM104 121h1v1h-1zM121 121h1v1h-1z"/></svg>