<svg width="540" height="541" fill="none" xmlns="http://www.w3.org/2000/svg"><path d="M268.99.78h1.56v16.05h-1.56V.79zM258.63 1.01l1.56-.06.62 16.04-1.56.06-.62-16.04zM248.3 1.64l1.55-.12 1.23 16-1.55.12-1.24-16zM237.99 2.66l1.55-.18 1.84 15.95-1.55.18L238 2.66zM227.73 4.08l1.54-.24 2.45 15.86-1.54.24-2.45-15.86zM217.53 5.89l1.53-.3 3.06 15.76-1.53.3-3.06-15.76zM207.4 8.09l1.53-.36 3.66 15.63-1.52.36-3.66-15.63zM197.38 10.67l1.5-.41 4.27 15.48-1.5.41-4.27-15.48zM187.46 13.64l1.48-.47 4.86 15.3-1.49.48-4.85-15.3zM177.66 17l1.46-.53 5.44 15.1-1.47.53-5.43-15.1zM168 20.72l1.44-.59 6.01 14.89-1.44.58-6.02-14.88zM158.48 24.8l1.42-.63 6.58 14.64-1.42.64-6.58-14.64zM149.13 29.26l1.4-.7 7.13 14.39-1.4.69-7.13-14.38zM139.95 34.07l1.37-.75 7.69 14.1-1.37.74-7.69-14.09zM130.97 39.23l1.34-.8 8.22 13.79-1.34.8-8.22-13.8zM399 488.86l1.35-.8 8.21 13.8-1.33.8-8.22-13.8zM122.2 44.73l1.3-.85 8.74 13.46-1.3.85-8.75-13.46zM407.3 483.74l1.3-.85 8.74 13.46-1.3.85-8.75-13.46zM113.63 50.56l1.28-.9 9.25 13.12-1.27.9-9.26-13.12zM415.37 478.3l1.28-.9 9.25 13.12-1.27.9-9.26-13.12zM105.3 56.71l1.24-.94 9.75 12.75-1.24.95-9.75-12.76zM423.24 472.56l1.24-.95 9.75 12.76-1.24.94-9.75-12.75zM97.22 63.18l1.2-.99 10.23 12.37-1.2 1-10.23-12.38zM430.88 466.52l1.2-1 10.24 12.38-1.2.99-10.24-12.37zM89.38 69.96l1.17-1.04 10.7 11.97-1.17 1.04-10.7-11.97zM438.29 460.2l1.16-1.05 10.7 11.97-1.16 1.04-10.7-11.97zM81.82 77.03l1.12-1.08L94.09 87.5l-1.12 1.08-11.15-11.55zM445.44 453.58l1.13-1.08 11.15 11.55-1.12 1.08-11.16-11.55zM74.53 84.4l1.08-1.13 11.58 11.1-1.08 1.13-11.58-11.1zM452.34 446.7l1.08-1.12 11.59 11.1-1.08 1.13-11.59-11.1zM67.52 92.02l1.04-1.16 12 10.66-1.03 1.16-12-10.66zM458.97 439.56l1.04-1.16 12 10.66-1.03 1.16-12.01-10.66zM60.82 99.92l1-1.2 12.4 10.18-1 1.2-12.4-10.18zM465.32 432.18l.99-1.2 12.4 10.18-.99 1.2-12.4-10.18zM54.43 108.07l.94-1.25 12.79 9.71-.95 1.24-12.78-9.7zM471.38 424.55l.94-1.24 12.79 9.7-.94 1.25-12.79-9.7zM48.35 116.45l.9-1.28 13.14 9.21-.9 1.28-13.14-9.2zM477.14 416.7l.9-1.28 13.15 9.2-.9 1.29-13.15-9.21zM42.6 125.06l.84-1.3 13.5 8.7-.85 1.3-13.5-8.7zM482.6 408.63l.85-1.31 13.49 8.7-.84 1.3-13.5-8.69zM37.18 133.9l.8-1.35 13.8 8.17-.78 1.34-13.82-8.17zM487.75 400.36l.79-1.34 13.82 8.17-.8 1.34-13.81-8.17zM32.1 142.92l.75-1.37 14.12 7.64-.74 1.37-14.13-7.64zM492.57 391.9l.74-1.38 14.12 7.64-.74 1.37-14.12-7.63zM27.38 152.14l.69-1.4 14.4 7.09-.69 1.4-14.4-7.09zM497.06 383.25l.7-1.4 14.4 7.1-.7 1.39-14.4-7.09zM23.01 161.53l.64-1.42 14.66 6.53-.63 1.42L23 161.53zM501.22 374.44l.64-1.42 14.66 6.53-.63 1.42-14.67-6.53zM19.01 171.09l.58-1.45 14.9 5.96-.57 1.45-14.9-5.97zM505.04 365.48l.58-1.45 14.9 5.97-.57 1.44-14.91-5.96zM15.38 180.78l.52-1.47 15.12 5.39-.52 1.47-15.12-5.39zM508.51 356.38l.52-1.47 15.13 5.39-.53 1.47-15.12-5.39zM12.12 190.62l.47-1.5 15.31 4.8-.46 1.5-15.32-4.8zM511.63 347.15l.47-1.48 15.31 4.8-.46 1.48-15.32-4.8zM9.24 200.56l.41-1.5 15.5 4.2-.42 1.51-15.49-4.2zM514.4 337.81l.4-1.5 15.5 4.2-.41 1.51-15.5-4.2zM6.75 210.62l.35-1.52 15.64 3.6-.35 1.53-15.64-3.61zM516.8 328.37l.35-1.52 15.64 3.61-.35 1.52-15.65-3.6zM4.64 220.76l.3-1.53 15.76 3-.29 1.54-15.77-3.01zM518.83 318.85l.3-1.54 15.76 3.01-.29 1.53-15.77-3zM2.93 230.97l.23-1.54 15.87 2.4-.23 1.54-15.87-2.4zM520.5 309.25l.24-1.54 15.87 2.4-.23 1.54-15.88-2.4zM1.6 241.25l.18-1.55 15.95 1.79-.17 1.54-15.96-1.78zM521.8 299.6l.18-1.55 15.95 1.78-.17 1.56-15.96-1.8zM.68 251.56l.11-1.55 16.01 1.17-.11 1.56-16.01-1.18zM522.73 289.9l.12-1.56 16 1.18-.1 1.56-16.02-1.18zM.15 261.9l.05-1.55 16.04.56-.05 1.55-16.04-.56zM523.3 280.17l.05-1.56 16.04.57-.05 1.55-16.05-.56zM.01 272.26v-1.56l16.05-.05v1.56l-16.05.05zM523.47 270.43v-1.56l16.05-.05v1.56l-16.05.05zM.28 282.62l-.07-1.56 16.04-.68.07 1.56-16.04.68zM523.28 260.7l-.06-1.56 16.04-.68.06 1.56-16.04.68zM.94 292.95l-.12-1.55 16-1.29.12 1.55-16 1.3zM522.72 250.97l-.13-1.55 16-1.3.13 1.56-16 1.29zM2 303.25l-.19-1.54 15.94-1.9.19 1.54L2 303.25zM521.78 241.27l-.18-1.54 15.94-1.9.18 1.54-15.94 1.9zM3.45 313.51l-.24-1.54 15.85-2.51.25 1.54-15.86 2.51zM520.47 231.62l-.24-1.54 15.85-2.5.25 1.53-15.86 2.51zM5.3 323.7l-.3-1.53 15.74-3.12.3 1.53L5.3 323.7zM518.8 222.03l-.31-1.53 15.75-3.12.3 1.53-15.75 3.12zM7.53 333.81l-.36-1.51 15.62-3.72.36 1.51-15.62 3.72zM516.75 212.5l-.37-1.51 15.62-3.72.36 1.51-15.61 3.72zM10.16 343.83l-.42-1.5 15.46-4.31.42 1.5-15.46 4.31zM514.34 203.06l-.42-1.5 15.46-4.31.42 1.5-15.46 4.31zM13.16 353.75l-.48-1.49 15.29-4.9.48 1.48-15.29 4.9zM511.57 193.73l-.48-1.49 15.29-4.9.47 1.48-15.28 4.9zM16.54 363.54l-.53-1.47 15.09-5.49.53 1.47-15.09 5.49zM508.44 184.5l-.53-1.47 15.08-5.49.53 1.47-15.08 5.49zM20.3 373.19l-.59-1.45 14.86-6.06.6 1.44-14.87 6.07zM504.96 175.4l-.59-1.44 14.87-6.07.58 1.45-14.86 6.06zM24.43 382.69l-.65-1.42 14.62-6.63.64 1.42-14.61 6.63zM501.13 166.44l-.64-1.42 14.62-6.63.64 1.42-14.62 6.63zM28.91 392.02l-.7-1.39 14.36-7.19.7 1.4-14.36 7.18zM496.97 157.64l-.7-1.4 14.35-7.18.7 1.39-14.35 7.19zM33.75 401.18l-.75-1.37 14.07-7.73.75 1.37-14.07 7.73zM492.47 149l-.75-1.37 14.06-7.73.76 1.37-14.07 7.73zM38.94 410.14l-.8-1.33 13.76-8.27.8 1.34-13.76 8.26zM487.64 140.54l-.8-1.34 13.75-8.26.8 1.33-13.75 8.27zM44.47 418.9l-.85-1.3 13.43-8.8.85 1.31-13.43 8.8zM482.49 132.27l-.86-1.3 13.44-8.8.85 1.31-13.43 8.8zM50.33 427.44l-.9-1.27 13.08-9.3.9 1.27-13.08 9.3zM477.02 124.2l-.9-1.26 13.08-9.3.9 1.27-13.08 9.3zM56.52 435.75l-.96-1.24 12.72-9.8.96 1.25-12.72 9.79zM471.25 116.36l-.95-1.23 12.72-9.8.95 1.24-12.72 9.8zM63.02 443.81l-1-1.2 12.33-10.27 1 1.2-12.33 10.27zM465.18 108.74l-1-1.2 12.34-10.27 1 1.2-12.34 10.27zM69.82 451.62l-1.04-1.16 11.93-10.74 1.04 1.16-11.93 10.74zM458.83 101.36l-1.04-1.16 11.93-10.74 1.04 1.16-11.93 10.74zM76.92 459.17l-1.09-1.12 11.51-11.2 1.09 1.12-11.51 11.2zM452.2 94.22l-1.1-1.11 11.52-11.2 1.08 1.12-11.5 11.2zM84.3 466.43l-1.13-1.08 11.07-11.62 1.13 1.07-11.07 11.63zM445.3 87.35l-1.14-1.07 11.07-11.63 1.13 1.08-11.07 11.62zM91.96 473.4l-1.17-1.03 10.61-12.04 1.17 1.03-10.61 12.04zM438.13 80.75l-1.17-1.03 10.62-12.04 1.17 1.03-10.62 12.04zM99.88 480.08l-1.21-.98 10.14-12.45 1.21.99-10.14 12.44zM430.72 74.43l-1.2-.99L439.65 61l1.2.98-10.14 12.45zM108.05 486.45l-1.25-.94 9.66-12.82 1.25.94-9.66 12.82zM423.07 68.4l-1.24-.95 9.66-12.82 1.25.94-9.67 12.82zM116.45 492.5l-1.28-.9 9.16-13.18 1.28.9-9.16 13.18zM415.2 62.65l-1.28-.89 9.16-13.18 1.28.9-9.16 13.17zM125.09 498.22l-1.32-.84 8.65-13.53 1.32.84-8.65 13.53zM407.11 57.23l-1.31-.84 8.65-13.53 1.31.84-8.65 13.53zM133.93 503.6l-1.34-.79 8.12-13.84 1.35.79-8.13 13.85zM398.82 52.11l-1.34-.79 8.12-13.85 1.35.8-8.13 13.84zM142.98 508.65l-1.37-.74 7.58-14.15 1.38.74-7.59 14.15zM390.34 47.32l-1.37-.74 7.58-14.15 1.38.74-7.59 14.15zM152.21 513.34l-1.4-.69 7.04-14.42 1.4.68-7.04 14.43zM381.69 42.85l-1.4-.68 7.03-14.43 1.4.68-7.04 14.43zM161.62 517.67l-1.43-.63 6.48-14.68 1.43.62-6.48 14.7zM372.86 38.72l-1.42-.63 6.47-14.68 1.43.63-6.48 14.68zM171.19 521.64l-1.45-.57 5.9-14.93 1.46.58-5.91 14.92zM363.89 34.94l-1.45-.58 5.9-14.92 1.46.57-5.91 14.93zM180.9 525.24l-1.47-.52 5.33-15.14 1.47.52-5.33 15.14zM354.77 31.5l-1.47-.52 5.34-15.14 1.47.52-5.34 15.14zM190.74 528.47l-1.49-.47 4.75-15.33 1.49.46-4.75 15.34zM345.54 28.41l-1.5-.46 4.75-15.34 1.5.47-4.75 15.33zM200.7 531.3l-1.5-.4 4.15-15.5 1.5.4-4.15 15.5zM336.19 25.68l-1.51-.4 4.15-15.5 1.51.4-4.15 15.5zM210.76 533.77l-1.52-.35 3.56-15.65 1.52.34-3.56 15.66zM326.74 23.31l-1.52-.34 3.55-15.66 1.52.35-3.55 15.65zM220.91 535.84l-1.53-.29 2.95-15.78 1.53.29-2.95 15.78zM317.2 21.3l-1.53-.28 2.95-15.78 1.54.29-2.96 15.78zM231.13 537.52l-1.54-.23 2.34-15.88 1.55.23-2.35 15.88zM307.6 19.67l-1.54-.23 2.34-15.88 1.55.23-2.35 15.88zM241.4 538.8l-1.54-.16 1.73-15.96 1.55.17-1.73 15.95zM297.94 18.4l-1.55-.17 1.74-15.96 1.55.17-1.74 15.96zM251.73 539.7l-1.56-.11 1.12-16.02 1.56.11-1.12 16.02zM288.24 17.5l-1.55-.1 1.12-16.02 1.55.11-1.12 16.02zM262.07 540.19l-1.56-.05.51-16.04 1.56.04-.5 16.05zM278.52 16.98l-1.56-.04.5-16.05 1.56.05-.5 16.04zM272.43 540.29h-1.56l-.11-16.05h1.56l.11 16.05zM282.78 539.99l-1.55.07-.73-16.04 1.56-.07.72 16.03zM293.12 539.29l-1.56.13-1.34-16 1.55-.13 1.35 16zM303.42 538.2l-1.55.18-1.96-15.93 1.55-.2 1.96 15.94zM313.67 536.7l-1.54.25-2.57-15.84 1.54-.25 2.57 15.84zM323.85 534.82l-1.53.31-3.17-15.74 1.53-.3 3.17 15.73zM333.96 532.55l-1.52.37-3.77-15.6 1.51-.37 3.78 15.6zM343.97 529.9l-1.5.42-4.37-15.45 1.5-.42 4.37 15.44zM353.87 526.85l-1.48.49-4.96-15.27 1.48-.48 4.96 15.26zM363.65 523.44l-1.47.53-5.54-15.06 1.46-.54 5.55 15.07zM373.29 519.65l-1.45.6-6.11-14.85 1.44-.6 6.12 14.85zM382.77 515.49l-1.42.65-6.68-14.6 1.42-.65 6.68 14.6zM392.1 510.97l-1.4.7-7.24-14.32 1.4-.7 7.23 14.32zM401.23 506.1l-1.36.75-7.79-14.04 1.37-.75 7.78 14.04z" fill="#213A39"/></svg>