<svg width="0" height="0" class="hidden">

	<symbol viewBox="0 0 8 15" xmlns="http://www.w3.org/2000/svg" shape-rendering="geometricPrecision" fill-rule="evenodd" clip-rule="evenodd" id="facebook">
		<path d="M5.2 15V8.1h2.4l.3-2.6H5.2V3.8c0-.8.2-1.3 1.4-1.3H8V0L5.9 0C3.8 0 2.4 1.2 2.4 3.5v2H0V8h2.4V15h2.8z"/>
	</symbol>

	<symbol viewBox="0 0 15 11" xmlns="http://www.w3.org/2000/svg" shape-rendering="geometricPrecision" fill-rule="evenodd" clip-rule="evenodd" id="youtube">
		<path d="M15.7 1.8A2 2 0 0014 .2C12 0 10 0 8 0S4 0 2 .2A2 2 0 00.3 1.8C0 3 0 4.3 0 5.5 0 6.7 0 8 .3 9.2A2 2 0 002 10.8c2 .2 4 .2 6 .2s4 0 6-.2a2 2 0 001.7-1.6c.3-1.2.3-2.5.3-3.7 0-1.2 0-2.5-.3-3.7zM6 7.9V2.7L11 5.3C9.3 6.3 7.6 7.1 6 8z"/>
	</symbol>

	<symbol viewBox="0 0 14 14" xmlns="http://www.w3.org/2000/svg" shape-rendering="geometricPrecision" fill-rule="evenodd" clip-rule="evenodd" id="instagram">
		<path d="M1.8 0h10.4c1 0 1.8.7 1.8 1.8v10.4c0 1-.8 1.8-1.8 1.8H1.8c-1 0-1.8-.7-1.8-1.8V1.8C0 .8.8 0 1.8 0zm8.4 1.6c-.3 0-.6.2-.6.6v1.5c0 .3.3.6.6.6h1.6c.3 0 .6-.3.6-.6V2.2c0-.4-.3-.6-.6-.6h-1.6zm2.2 4.3h-1.2l.2 1.2c0 2.3-2 4.2-4.4 4.2a4.3 4.3 0 01-4.3-4.2L2.8 6H1.6v6c0 .2.2.5.5.5H12c.3 0 .5-.3.5-.6V6zM7 4.2A2.8 2.8 0 004.2 7c0 1.5 1.3 2.7 2.8 2.7 1.6 0 2.8-1.2 2.8-2.7 0-1.5-1.2-2.8-2.8-2.8z"/>
	</symbol>

	<symbol viewBox="0 0 511 511" xmlns="http://www.w3.org/2000/svg" shape-rendering="geometricPrecision" fill-rule="evenodd" clip-rule="evenodd" id="whatsapp">
		<path d="M510 249a249 249 0 01-371 217L0 510l45-133A249 249 0 01260 0c138 0 250 112 250 249zM260 40C144 40 49 134 49 249c0 46 15 88 41 122l-27 78 81-26a210 210 0 00326-174c1-115-94-209-210-209zm126 266c-1-3-5-4-11-7l-42-20c-6-2-10-3-14 3l-20 24c-3 4-7 5-13 2s-26-10-49-31c-18-16-31-36-34-42-4-6-1-9 2-12l10-11c3-3 4-6 6-10s1-8-1-11l-19-45c-5-12-10-10-14-10l-11-1c-4 0-11 2-17 8-5 6-21 21-21 51s22 59 25 63 42 67 105 92c62 24 62 16 73 15 12-1 37-15 42-29s5-26 3-29z"/>
	</symbol>

</svg>