<svg xmlns="http://www.w3.org/2000/svg" width="108" height="26"><path fill-rule="evenodd" fill="#6AD3B1" d="M103.76 21.81c-2.42 2.33-5.48 3.5-9.18 3.5-3.7 0-6.76-1.17-9.2-3.5a11.8 11.8 0 01-3.65-8.92c0-3.63 1.22-6.6 3.66-8.93 2.43-2.33 5.5-3.5 9.2-3.5 3.69 0 6.75 1.17 9.17 3.5a11.84 11.84 0 013.64 8.93c0 3.62-1.21 6.6-3.64 8.92zM99.3 7.91a6.08 6.08 0 00-4.72-1.97c-1.97 0-3.55.66-4.75 1.98a7.1 7.1 0 00-1.8 4.97c0 1.99.6 3.64 1.8 4.96a6.11 6.11 0 004.75 1.98c1.95 0 3.52-.66 4.72-1.98a7.1 7.1 0 001.8-4.96c0-2-.6-3.65-1.8-4.97zm-34.2 17.4a13.2 13.2 0 01-9.25-3.42c-2.5-2.28-3.75-5.28-3.75-9 0-3.72 1.25-6.72 3.75-9A13.2 13.2 0 0165.1.47c2.5 0 4.6.55 6.3 1.65 1.7 1.1 3.02 2.5 3.96 4.18L70.17 9a6.18 6.18 0 00-2.06-2.18c-.9-.59-1.9-.88-3.01-.88-1.94 0-3.55.66-4.8 2a6.93 6.93 0 00-1.9 4.95c0 1.96.63 3.61 1.9 4.95a6.33 6.33 0 004.8 2 7.57 7.57 0 004.43-1.45v-1.87h-5.4V11.1h11.59v9.54A13.75 13.75 0 0165.1 25.3zm-31.32 0c-3.7 0-6.76-1.17-9.2-3.5a11.8 11.8 0 01-3.65-8.92c0-3.63 1.21-6.6 3.65-8.93s5.5-3.5 9.2-3.5c3.7 0 6.75 1.17 9.18 3.5a11.84 11.84 0 013.63 8.93c0 3.62-1.2 6.6-3.63 8.92-2.43 2.33-5.48 3.5-9.18 3.5zm4.71-17.4a6.08 6.08 0 00-4.71-1.97c-1.97 0-3.55.66-4.75 1.98a7.1 7.1 0 00-1.8 4.97c0 1.99.6 3.64 1.8 4.96a6.11 6.11 0 004.75 1.98c1.94 0 3.52-.66 4.71-1.98a7.1 7.1 0 001.8-4.96c0-2-.6-3.65-1.8-4.97zM.38.87h6.2v18.61h9.64v5.4H.37v-24z"/></svg>